<?xml version="1.0" standalone="no"?>
<!DOCTYPE svg PUBLIC "-//W3C//DTD SVG 20010904//EN"
 "http://www.w3.org/TR/2001/REC-SVG-20010904/DTD/svg10.dtd">
<svg version="1.0" xmlns="http://www.w3.org/2000/svg"
 width="920.000000pt" height="920.000000pt" viewBox="0 0 920.000000 920.000000"
 preserveAspectRatio="xMidYMid meet">
<metadata>
Created by potrace 1.11, written by Peter Selinger 2001-2013
</metadata>
<g transform="translate(0.000000,920.000000) scale(0.100000,-0.100000)"
fill="#000000" stroke="none">
<path d="M0 4600 l0 -4600 4600 0 4600 0 0 4600 0 4600 -4600 0 -4600 0 0
-4600z m7521 2645 c9 -27 15 -53 13 -56 -2 -3 -63 -9 -136 -12 -129 -6 -278
-27 -361 -51 l-40 -11 67 -54 c231 -181 337 -368 443 -779 l8 -32 60 82 c106
145 400 435 620 612 49 40 47 36 -15 -19 -128 -117 -433 -426 -496 -505 -34
-41 -82 -108 -109 -147 l-48 -73 17 -122 c10 -68 19 -124 21 -126 2 -2 36 11
76 28 132 56 274 108 421 154 207 63 238 65 58 2 -197 -68 -285 -103 -437
-176 -120 -57 -122 -59 -128 -97 -4 -21 -12 -57 -20 -79 l-13 -41 197 -6 c170
-5 449 -32 438 -44 -2 -2 -59 2 -126 8 -66 6 -214 9 -327 7 -193 -3 -206 -4
-216 -23 -19 -36 -116 -124 -185 -169 -38 -24 -133 -75 -213 -114 -169 -81
-210 -112 -323 -247 -99 -118 -107 -132 -107 -182 0 -50 29 -96 87 -136 321
-221 481 -388 598 -622 81 -161 125 -364 125 -579 0 -224 -96 -490 -273 -760
-231 -351 -601 -669 -889 -764 -186 -61 -555 -108 -778 -99 -292 12 -499 108
-619 286 -67 99 -85 160 -85 291 0 147 20 203 105 294 103 110 247 151 394
111 243 -66 341 -337 198 -552 -59 -89 -199 -184 -295 -199 -21 -4 -35 -10
-33 -14 9 -14 174 -48 290 -61 132 -14 361 -6 495 17 462 79 798 361 939 785
40 121 61 257 68 430 10 289 -31 427 -180 605 -89 106 -157 165 -337 292 -224
158 -233 165 -264 222 -35 65 -39 137 -12 220 17 50 37 73 236 270 275 272
392 427 450 598 22 63 23 74 10 82 -8 5 -64 10 -125 11 -96 2 -103 3 -55 9 30
5 87 8 127 9 39 1 74 5 77 10 3 5 9 40 12 79 6 63 5 70 -12 76 -55 16 -175 28
-304 28 -126 1 -137 2 -85 10 64 10 355 4 393 -7 22 -7 22 -6 22 88 0 286
-117 555 -332 764 -68 66 -173 143 -195 143 -21 0 -181 -103 -281 -179 -314
-243 -561 -619 -724 -1101 -58 -174 -102 -340 -158 -610 -96 -459 -191 -824
-284 -1095 -121 -355 -212 -548 -361 -770 -407 -605 -1012 -1017 -1735 -1180
-227 -52 -379 -68 -630 -69 -416 -1 -720 60 -982 196 -177 92 -337 245 -402
383 -53 112 -69 195 -69 365 0 176 22 305 74 441 57 148 187 317 331 434 87
69 196 140 204 132 6 -5 36 -179 32 -181 -2 -1 -22 -10 -45 -20 -64 -28 -180
-126 -244 -207 -71 -88 -148 -237 -186 -356 -25 -78 -28 -103 -28 -218 0 -149
13 -204 72 -303 174 -293 523 -491 939 -532 137 -14 473 -1 682 25 482 62 878
230 1147 486 230 220 352 420 499 817 70 188 114 340 261 895 75 282 164 598
200 702 169 504 371 881 683 1270 188 234 445 465 734 658 76 50 134 94 130
98 -4 3 -44 16 -89 28 -333 88 -743 79 -1118 -25 -374 -103 -776 -321 -1118
-606 -645 -536 -1104 -1376 -1169 -2135 -20 -238 12 -473 84 -621 98 -199 357
-344 560 -311 286 46 482 415 573 1084 46 336 102 574 190 800 174 451 435
798 870 1156 131 108 285 223 290 217 3 -2 12 -40 21 -83 l16 -79 -28 -20
c-80 -58 -290 -230 -377 -309 -316 -287 -548 -639 -680 -1029 -69 -204 -104
-365 -146 -679 -64 -473 -169 -876 -300 -1154 -145 -307 -303 -409 -536 -346
-158 44 -318 139 -482 288 -99 90 -153 167 -187 270 -43 131 -51 203 -51 433
1 352 52 673 162 1015 328 1019 1164 1845 2228 2200 377 126 707 180 1100 180
223 -1 253 -3 423 -32 l182 -31 128 24 c105 19 269 41 512 67 19 2 67 4 105 3
l70 -1 16 -50z m779 -218 c0 -2 -10 -12 -22 -23 l-23 -19 19 23 c18 21 26 27
26 19z m-1671 -623 c56 -16 123 -69 147 -115 20 -39 18 -102 -3 -122 -48 -42
-204 -48 -279 -9 -53 27 -100 81 -115 132 -11 35 -10 42 7 61 33 37 103 66
165 68 14 1 49 -6 78 -15z m1718 -200 c-3 -3 -12 -4 -19 -1 -8 3 -5 6 6 6 11
1 17 -2 13 -5z m-40 -10 c-3 -3 -12 -4 -19 -1 -8 3 -5 6 6 6 11 1 17 -2 13 -5z"/>
</g>
</svg>
