<svg id="140621c4-c3db-4dd0-8961-2915d6638d4c" data-name="stacked fustus" xmlns="http://www.w3.org/2000/svg" viewBox="0 0 464.9 382.77">
  <title>fustus2</title>
  <g>
    <g>
      <g id="2119ebb9-c1ba-4f32-9381-eb07d05df423" data-name="Bunyun">
        <path d="M178.57,10.33a76.68,76.68,0,0,1,11.5.88q5.76.88,11.5,2t11.42,2a74,74,0,0,0,11.42.88,14.5,14.5,0,0,0,3.83-.48,16.48,16.48,0,0,0,2.4-4.95h3.19a12.31,12.31,0,0,1-3.51,8.07,23.62,23.62,0,0,1-7.67,5.19,40,40,0,0,1-9.5,2.71,44.42,44.42,0,0,1-8.86.64,22,22,0,0,0-8.07,10.38A74.64,74.64,0,0,0,192,52.42q-1.44,7.9-2.08,15.89T188.32,82.2H207v3.2H188a82.27,82.27,0,0,1-9.67,24.19,65.9,65.9,0,0,1-37.13,29.15,84.58,84.58,0,0,1-25.87,3.83,68.58,68.58,0,0,1-12.78-1.28A42.05,42.05,0,0,1,90.26,137a28.66,28.66,0,0,1-9.35-8,19.73,19.73,0,0,1-3.75-12.29,19.27,19.27,0,0,1,2.56-10.06,23.48,23.48,0,0,1,6.7-7.27,35.42,35.42,0,0,1,9.43-4.71A67.75,67.75,0,0,1,106.71,92a70.5,70.5,0,0,1,10.86-.88,87.21,87.21,0,0,1,9.58.48q-2.4-3.51-4.31-6.39a46.27,46.27,0,0,1-3.36-5.9,29.31,29.31,0,0,1-2.15-6.39,38.59,38.59,0,0,1-.72-8A47.19,47.19,0,0,1,122,42.43a55.71,55.71,0,0,1,14-17.17,65.25,65.25,0,0,1,19.81-11A67.87,67.87,0,0,1,178.57,10.33ZM119.32,63A38,38,0,0,0,121.24,76a29.34,29.34,0,0,0,5.35,9.26,46.4,46.4,0,0,0,8.06,7.35q4.64,3.36,10.07,7.19l-.64,2.39a29.63,29.63,0,0,1-6.23-2.47c-1.6-.9-3.14-1.76-4.63-2.56a22.43,22.43,0,0,0-5.11-1.91,33.67,33.67,0,0,0-7.83-.72,69.25,69.25,0,0,0-12.46,1.2,39.84,39.84,0,0,0-12,4.15,26.42,26.42,0,0,0-8.95,7.82,20.39,20.39,0,0,0-3.51,12.22,14,14,0,0,0,3.35,9.58,23.18,23.18,0,0,0,8.23,6,41.67,41.67,0,0,0,10.46,3,66.09,66.09,0,0,0,10.06.88,62.33,62.33,0,0,0,23-3.92,49.29,49.29,0,0,0,17-11,56.75,56.75,0,0,0,11.58-17.09,97.08,97.08,0,0,0,6.7-21.95H152.06l1.28-3.2h21.08q1.59-9.26,3.2-16.53A81.14,81.14,0,0,1,181.85,52a70.45,70.45,0,0,1,6.79-12.54A109.43,109.43,0,0,1,199.5,26.14l-15.89-3.51a74.71,74.71,0,0,0-16.22-1.76,56.32,56.32,0,0,0-17.8,2.88,48.09,48.09,0,0,0-15.41,8.3A41.3,41.3,0,0,0,123.4,45.31,37.79,37.79,0,0,0,119.32,63Z" fill="#67963a"/>
        <path d="M202.05,139.06a9.66,9.66,0,0,1-6.39.72,6.56,6.56,0,0,1-4.95-4.4,27.86,27.86,0,0,1,.4-9.5q1-5.35,2-9.9a68.24,68.24,0,0,0,1.19-7.19q.24-2.62-2-1.2a16,16,0,0,0-2.88,2.64,19.07,19.07,0,0,0-1.75,2.63,2.1,2.1,0,0,1-1-.39l-1.44-.88a30.36,30.36,0,0,1,7.27-7.59,14.27,14.27,0,0,1,10.14-3,3.23,3.23,0,0,1,2.71,1.75,16.23,16.23,0,0,1,1,2.72,31.85,31.85,0,0,1-.32,6.39q-.48,3.2-1.2,6.3c-.47,2.08-1,4.16-1.51,6.23a59.24,59.24,0,0,0-1.28,6.47c0,1,.56,1.57,1.68,1.84a2.46,2.46,0,0,0,2.63-.72,37.19,37.19,0,0,0,10.78-13.74,101.6,101.6,0,0,0,6-16.61h10.54c-.43,1.82-.93,3.92-1.52,6.31s-1.17,4.87-1.75,7.43-1.15,5-1.68,7.35a49.61,49.61,0,0,0-1,6,8.62,8.62,0,0,0,.16,3.51q.41,1,1.68-.24l5.59-7.35,2.08,1.44c-1.5,2-2.67,3.65-3.52,4.87a27.88,27.88,0,0,1-2.23,2.88c-.64.69-1.2,1.27-1.68,1.75s-1,1-1.68,1.52a9.2,9.2,0,0,1-2.87,1.6,12.33,12.33,0,0,1-3.52.72,6.39,6.39,0,0,1-3.19-.64,3.77,3.77,0,0,1-1.92-2.64,18,18,0,0,1,.08-6.07c.37-2.13.67-4.15.88-6.07a48.93,48.93,0,0,1-6.63,8.71A29.45,29.45,0,0,1,202.05,139.06Z" fill="#67963a"/>
        <path d="M264.17,99.13a22.16,22.16,0,0,1,4.08.4,13,13,0,0,1,4,1.44,10.7,10.7,0,0,1,3.11,2.63,6.22,6.22,0,0,1,1.28,4,3.53,3.53,0,0,1-1.76,3.28,11.5,11.5,0,0,1-4.47,1.36,6.11,6.11,0,0,1-4.95-1.84,4.59,4.59,0,0,1-1.6-3.91,8.15,8.15,0,0,1,1.2-2.72,6.42,6.42,0,0,1,3-1.76l-3.52-.15a12.19,12.19,0,0,0-2.87.39,14.93,14.93,0,0,0-3,1.12,7.75,7.75,0,0,0-2.39,1.84,4,4,0,0,0-1,2.71,3.55,3.55,0,0,0,1.36,2.88,14.19,14.19,0,0,0,3.35,2c1.33.59,2.8,1.18,4.39,1.76a18.47,18.47,0,0,1,4.4,2.32,13.33,13.33,0,0,1,3.35,3.51,9.82,9.82,0,0,1,1.36,5.43A10.53,10.53,0,0,1,271.6,132a17.28,17.28,0,0,1-4.55,4.47,19.75,19.75,0,0,1-6,2.72,24.58,24.58,0,0,1-6.31.88c-1.7,0-3.41-.08-5.11-.24a14.08,14.08,0,0,1-4.63-1.2,8.19,8.19,0,0,1-3.36-2.8,8.36,8.36,0,0,1-1.27-4.87,5.7,5.7,0,0,1,2.39-4.71,8.29,8.29,0,0,1,5.11-1.84,7.47,7.47,0,0,1,4.48,1.28q1.75,1.27,1.75,4.31a3.91,3.91,0,0,1-1.91,3.76,17.57,17.57,0,0,1-3.68,1.51,1.45,1.45,0,0,0,.88.56,10.11,10.11,0,0,0,1.84.4,15.21,15.21,0,0,0,2.23.16h2.08a10.83,10.83,0,0,0,6.15-2,6.45,6.45,0,0,0,2.95-5.67,2.93,2.93,0,0,0-.16-1,4.91,4.91,0,0,0-.32-.8,15.06,15.06,0,0,0-5.11-2.88,40.59,40.59,0,0,1-5.43-2.23,14.85,14.85,0,0,1-4.39-3.28,8.33,8.33,0,0,1-1.84-5.82,12.14,12.14,0,0,1,1.44-6.07,12.77,12.77,0,0,1,3.83-4.24,17,17,0,0,1,5.44-2.47A23.8,23.8,0,0,1,264.17,99.13Z" fill="#67963a"/>
        <path d="M280,103.44h9.59l7.18-33.85,11.34-2.08-7.5,35.93H311l-1,4H299.79l-4,20.29q-.48,5.11.32,6.15c.53.69,1.36.53,2.48-.48a29.88,29.88,0,0,0,4-4.79c1.54-2.18,3.22-4.45,5-6.79l2.56,2.07A17.73,17.73,0,0,1,308,127.8a51.75,51.75,0,0,1-3.91,5,24.89,24.89,0,0,1-6.55,5.67,12.88,12.88,0,0,1-8.62,1.67c-2.77-.32-4.32-1.51-4.64-3.59a25,25,0,0,1,.8-8.7l3.84-20.45H279Z" fill="#67963a"/>
        <path d="M327.57,139.06a9.62,9.62,0,0,1-6.38.72,6.56,6.56,0,0,1-5-4.4,28.11,28.11,0,0,1,.4-9.5c.7-3.57,1.36-6.87,2-9.9a66.18,66.18,0,0,0,1.2-7.19q.24-2.62-2-1.2a15.93,15.93,0,0,0-2.87,2.64,19.12,19.12,0,0,0-1.76,2.63,2.19,2.19,0,0,1-1-.39c-.42-.27-.9-.56-1.44-.88a30.54,30.54,0,0,1,7.27-7.59,14.29,14.29,0,0,1,10.14-3,3.24,3.24,0,0,1,2.72,1.75,18.24,18.24,0,0,1,1,2.72,32.61,32.61,0,0,1-.32,6.39q-.48,3.2-1.2,6.3t-1.52,6.23a61.71,61.71,0,0,0-1.28,6.47c0,1,.56,1.57,1.68,1.84a2.47,2.47,0,0,0,2.64-.72,37.4,37.4,0,0,0,10.78-13.74,102.54,102.54,0,0,0,6-16.61H359.2q-.65,2.73-1.52,6.31c-.59,2.4-1.17,4.87-1.76,7.43l-1.67,7.35a47.7,47.7,0,0,0-1,6,8.44,8.44,0,0,0,.16,3.51c.26.69.82.61,1.67-.24l5.59-7.35,2.08,1.44c-1.49,2-2.66,3.65-3.51,4.87a27.76,27.76,0,0,1-2.24,2.88c-.64.69-1.2,1.27-1.68,1.75s-1,1-1.67,1.52a9.38,9.38,0,0,1-2.88,1.6,12.2,12.2,0,0,1-3.51.72,6.43,6.43,0,0,1-3.2-.64,3.78,3.78,0,0,1-1.91-2.64,17.74,17.74,0,0,1,.08-6.07q.56-3.2.88-6.07a48.93,48.93,0,0,1-6.63,8.71A29.62,29.62,0,0,1,327.57,139.06Z" fill="#67963a"/>
        <path d="M389.7,99.13a22.05,22.05,0,0,1,4.07.4,12.85,12.85,0,0,1,4,1.44,10.74,10.74,0,0,1,3.12,2.63,6.22,6.22,0,0,1,1.28,4,3.53,3.53,0,0,1-1.76,3.28,11.5,11.5,0,0,1-4.47,1.36,6.09,6.09,0,0,1-4.95-1.84c-1.28-1.33-1.82-2.64-1.6-3.91a8.15,8.15,0,0,1,1.2-2.72,6.43,6.43,0,0,1,2.95-1.76l-3.51-.15a12.26,12.26,0,0,0-2.88.39,15.06,15.06,0,0,0-3,1.12,7.67,7.67,0,0,0-2.4,1.84,4,4,0,0,0-1,2.71,3.58,3.58,0,0,0,1.36,2.88,14.27,14.27,0,0,0,3.36,2q2,.89,4.39,1.76a18.21,18.21,0,0,1,4.39,2.32,13.17,13.17,0,0,1,3.35,3.51A9.73,9.73,0,0,1,399,125.8a10.46,10.46,0,0,1-1.84,6.15,17.13,17.13,0,0,1-4.55,4.47,19.64,19.64,0,0,1-6,2.72,24.51,24.51,0,0,1-6.3.88c-1.71,0-3.41-.08-5.12-.24a14.15,14.15,0,0,1-4.63-1.2,8.17,8.17,0,0,1-3.35-2.8,8.36,8.36,0,0,1-1.28-4.87,5.68,5.68,0,0,1,2.4-4.71,8.29,8.29,0,0,1,5.11-1.84,7.41,7.41,0,0,1,4.47,1.28q1.75,1.27,1.76,4.31a3.9,3.9,0,0,1-1.92,3.76,17.5,17.5,0,0,1-3.67,1.51c.1.22.4.4.88.56a10,10,0,0,0,1.83.4,15.34,15.34,0,0,0,2.24.16h2.07a10.83,10.83,0,0,0,6.15-2,6.46,6.46,0,0,0,3-5.67,3.22,3.22,0,0,0-.16-1,7.78,7.78,0,0,0-.32-.8,15.16,15.16,0,0,0-5.11-2.88,40.05,40.05,0,0,1-5.43-2.23,14.72,14.72,0,0,1-4.39-3.28,8.28,8.28,0,0,1-1.84-5.82,12.14,12.14,0,0,1,1.44-6.07,12.56,12.56,0,0,1,3.83-4.24,17,17,0,0,1,5.43-2.47A23.82,23.82,0,0,1,389.7,99.13Z" fill="#67963a"/>
      </g>
      <g id="c41b065f-9b2e-4048-b0d9-68beff2a4d4c" data-name="Fustus">
        <path d="M204.52,298.92a9.58,9.58,0,0,1-6.39.72,6.55,6.55,0,0,1-4.95-4.39,28.1,28.1,0,0,1,.4-9.5q1-5.36,2-9.9a66.18,66.18,0,0,0,1.2-7.19q.24-2.64-2-1.2a15.59,15.59,0,0,0-2.87,2.64,18.53,18.53,0,0,0-1.76,2.63,2.08,2.08,0,0,1-1-.4l-1.44-.88a30.68,30.68,0,0,1,7.27-7.58,14.27,14.27,0,0,1,10.14-3,3.27,3.27,0,0,1,2.72,1.76,18.14,18.14,0,0,1,1,2.71,32.53,32.53,0,0,1-.32,6.39q-.48,3.21-1.2,6.31c-.48,2.08-1,4.15-1.52,6.23a61.2,61.2,0,0,0-1.28,6.47c0,1,.56,1.57,1.68,1.84a2.49,2.49,0,0,0,2.64-.72,37.4,37.4,0,0,0,10.78-13.74,101.56,101.56,0,0,0,6-16.61h10.55c-.43,1.81-.94,3.92-1.52,6.31s-1.17,4.87-1.76,7.43-1.14,5-1.68,7.34a49.67,49.67,0,0,0-1,6,8.49,8.49,0,0,0,.16,3.52c.26.69.82.61,1.67-.24l5.59-7.35,2.08,1.44c-1.49,2-2.66,3.65-3.51,4.87a28.59,28.59,0,0,1-2.24,2.87c-.64.7-1.2,1.28-1.68,1.76s-1,1-1.68,1.52a9,9,0,0,1-2.87,1.59,11.56,11.56,0,0,1-3.51.72,6.3,6.3,0,0,1-3.2-.64,3.72,3.72,0,0,1-1.91-2.63,17.74,17.74,0,0,1,.08-6.07q.56-3.19.87-6.07a48.41,48.41,0,0,1-6.62,8.71A29.42,29.42,0,0,1,204.52,298.92Z" fill="#67963a"/>
        <path d="M357.54,298.92a9.6,9.6,0,0,1-6.39.72,6.55,6.55,0,0,1-4.95-4.39,27.6,27.6,0,0,1,.4-9.5c.69-3.57,1.36-6.87,2-9.9a66.18,66.18,0,0,0,1.2-7.19q.24-2.64-2-1.2a16,16,0,0,0-2.88,2.64,19.42,19.42,0,0,0-1.76,2.63,2.05,2.05,0,0,1-1-.4l-1.44-.88a30.63,30.63,0,0,1,7.26-7.58,14.31,14.31,0,0,1,10.15-3,3.25,3.25,0,0,1,2.71,1.76,16.14,16.14,0,0,1,1,2.71,32.53,32.53,0,0,1-.32,6.39q-.48,3.21-1.2,6.31c-.48,2.08-1,4.15-1.51,6.23a58.77,58.77,0,0,0-1.28,6.47c0,1,.56,1.57,1.68,1.84a2.48,2.48,0,0,0,2.63-.72,37.29,37.29,0,0,0,10.78-13.74,101.6,101.6,0,0,0,6-16.61h10.54c-.43,1.81-.93,3.92-1.52,6.31s-1.17,4.87-1.75,7.43-1.15,5-1.68,7.34a49.94,49.94,0,0,0-1,6,8.49,8.49,0,0,0,.16,3.52c.27.69.82.61,1.68-.24l5.59-7.35,2.07,1.44c-1.49,2-2.66,3.65-3.51,4.87a27.2,27.2,0,0,1-2.24,2.87c-.63.7-1.19,1.28-1.67,1.76s-1,1-1.68,1.52a9.1,9.1,0,0,1-2.87,1.59,11.69,11.69,0,0,1-3.52.72,6.29,6.29,0,0,1-3.19-.64,3.73,3.73,0,0,1-1.92-2.63,18,18,0,0,1,.08-6.07c.37-2.13.67-4.15.88-6.07a48.93,48.93,0,0,1-6.63,8.71A29.37,29.37,0,0,1,357.54,298.92Z" fill="#67963a"/>
        <path d="M278.31,260.91a9.56,9.56,0,0,1,6.38-.71,6.52,6.52,0,0,1,4.95,4.39,27.6,27.6,0,0,1-.4,9.5q-1,5.36-2,9.9a66.18,66.18,0,0,0-1.2,7.19q-.24,2.63,2,1.2a14.66,14.66,0,0,0,2.87-2.72,25.19,25.19,0,0,0,1.76-2.71,2,2,0,0,1,1,.48,16.13,16.13,0,0,0,1.43.95,29.4,29.4,0,0,1-7.26,7.51,15.11,15.11,0,0,1-10.14,3,3.22,3.22,0,0,1-2.72-1.75,15.93,15.93,0,0,1-1-2.72,23.62,23.62,0,0,1,.24-6.39q.56-3.19,1.28-6.3c.48-2.08,1-4.18,1.52-6.31a65.94,65.94,0,0,0,1.28-6.55c0-1-.56-1.54-1.68-1.76a2.78,2.78,0,0,0-2.64.64,37.1,37.1,0,0,0-6.15,6.39,51.26,51.26,0,0,0-4.63,7.43,61.63,61.63,0,0,0-3.43,8.14q-1.44,4.23-2.56,8.55H246.68c.43-1.81.93-3.92,1.52-6.31s1.17-4.87,1.76-7.43,1.14-5,1.67-7.43a49.9,49.9,0,0,0,1-6.07,8.46,8.46,0,0,0-.16-3.51c-.27-.69-.82-.61-1.67.24-.86,1.28-1.76,2.53-2.72,3.75s-1.92,2.48-2.87,3.76l-2.08-1.6c1.38-2,2.53-3.62,3.43-4.79s1.68-2.13,2.32-2.88a18.29,18.29,0,0,1,1.68-1.75c.48-.43,1-.91,1.67-1.44a9.26,9.26,0,0,1,2.88-1.6,12.2,12.2,0,0,1,3.51-.72,6.43,6.43,0,0,1,3.2.64,3.78,3.78,0,0,1,1.91,2.64,18,18,0,0,1-.08,6.07q-.56,3.19-.88,6.07a51.41,51.41,0,0,1,6.63-8.79A26.88,26.88,0,0,1,278.31,260.91Z" fill="#67963a"/>
        <path d="M299.15,303.32a7.78,7.78,0,0,1,3.91,2,5.86,5.86,0,0,1,1.84,4.47,30.73,30.73,0,0,1-.56,5,45.67,45.67,0,0,0,11.9-10.39A94.92,94.92,0,0,0,326.06,289a69.4,69.4,0,0,1-8.95,6.71,30.19,30.19,0,0,1-6.86,3,17.22,17.22,0,0,1-7.35.64,3.08,3.08,0,0,1-1.76-1.43,6.63,6.63,0,0,1-.63-2.16,12.63,12.63,0,0,1-.08-2.56c.05-.9.08-1.72.08-2.47q.63-3.51,1.67-8.07c.69-3,1.25-5.75,1.68-8.14a27.59,27.59,0,0,0,.56-5.35q-.09-1.75-1.68,0a29.37,29.37,0,0,0-3.19,2.79c-.64.7-1.44,1.52-2.4,2.48V269.7a32.77,32.77,0,0,1,12-8.15,5.54,5.54,0,0,1,4.39-.48,3.43,3.43,0,0,1,3,2.88,28.4,28.4,0,0,1,.24,7.58,50.82,50.82,0,0,1-1.36,7.43q-1,3.68-1.92,7.43a46.88,46.88,0,0,0-1.28,7.42,43.69,43.69,0,0,0,12.14-7.74,28.08,28.08,0,0,0,7.83-11.58c-.64-.43-1.31-.82-2-1.2l-2.08-1.12a6.26,6.26,0,0,1-1.83-1.51,7.11,7.11,0,0,1-1.28-2.72,11.54,11.54,0,0,1,.64-5.35,5.78,5.78,0,0,1,3.35-3.59,6.56,6.56,0,0,1,5.43-.56,5.58,5.58,0,0,1,4,3.59,9,9,0,0,1,.79,6,23.9,23.9,0,0,1-2.07,6q-2.56,5.12-4.71,10a95.55,95.55,0,0,1-4.87,9.5,134.75,134.75,0,0,1-8.63,12.78,49.17,49.17,0,0,1-10.7,10.38,19.15,19.15,0,0,1-7.27,2.4,9.88,9.88,0,0,1-7.1-1.76,6.57,6.57,0,0,1-2.56-3,8.67,8.67,0,0,1-.64-4,8.3,8.3,0,0,1,1.2-3.75m0,0c.75-1.63,4.15-3.74,7.35-3.19a7.1,7.1,0,0,1,3.91,2" fill="#67963a"/>
        <path d="M430,260.91a9.59,9.59,0,0,1,6.39-.71,6.53,6.53,0,0,1,4.95,4.39,27.85,27.85,0,0,1-.4,9.5q-1,5.36-2,9.9a66.18,66.18,0,0,0-1.2,7.19c-.16,1.75.5,2.15,2,1.2a14.66,14.66,0,0,0,2.87-2.72,25.19,25.19,0,0,0,1.76-2.71,2,2,0,0,1,1,.48,16.13,16.13,0,0,0,1.43.95,29.4,29.4,0,0,1-7.26,7.51,15.12,15.12,0,0,1-10.15,3,3.21,3.21,0,0,1-2.71-1.75,15.93,15.93,0,0,1-1-2.72,23.62,23.62,0,0,1,.24-6.39q.56-3.19,1.28-6.3c.48-2.08,1-4.18,1.52-6.31A65.93,65.93,0,0,0,430,268.9c0-1-.56-1.54-1.67-1.76a2.78,2.78,0,0,0-2.64.64,37.1,37.1,0,0,0-6.15,6.39,51.26,51.26,0,0,0-4.63,7.43,61.63,61.63,0,0,0-3.43,8.14q-1.44,4.23-2.56,8.55H398.37c.43-1.81.93-3.92,1.52-6.31s1.17-4.87,1.76-7.43,1.14-5,1.67-7.43a51.94,51.94,0,0,0,1-6.07,8.64,8.64,0,0,0-.16-3.51q-.4-1-1.68.24-1.27,1.92-2.71,3.75t-2.88,3.76l-2.07-1.6q2.07-3,3.43-4.79c.91-1.17,1.68-2.13,2.32-2.88a19.7,19.7,0,0,1,1.67-1.75q.72-.64,1.68-1.44a9.15,9.15,0,0,1,2.88-1.6,12.2,12.2,0,0,1,3.51-.72,6.37,6.37,0,0,1,3.19.64,3.77,3.77,0,0,1,1.92,2.64,18,18,0,0,1-.08,6.07c-.37,2.13-.67,4.15-.88,6.07a51.41,51.41,0,0,1,6.63-8.79A26.83,26.83,0,0,1,430,260.91Z" fill="#67963a"/>
        <path d="M164.59,188.69a6.58,6.58,0,0,0-4.93.31,4.52,4.52,0,0,0-1.3.9,1.16,1.16,0,0,0-.33.51,1.3,1.3,0,0,0,0,.52,5.56,5.56,0,0,0,3.42,4,8.32,8.32,0,0,0,5.4.14,2.46,2.46,0,0,0,1.27-.68c.68-.82.32-2.34-.2-3.16A6.49,6.49,0,0,0,164.59,188.69Z" fill="#67963a"/>
        <path d="M186.62,205.22c.15-.32.29-.64.41-1a11,11,0,0,0,.55-3.07,104.47,104.47,0,0,1,21.5-8.07,105,105,0,0,0-21.49,7.12,26.18,26.18,0,0,0-.38-3.76c-.14-.83-.29-1.68-.46-2.54q.63-1.12,1.35-2.19a55.86,55.86,0,0,1,5.69-7,128.05,128.05,0,0,1,13.26-12.35,128.19,128.19,0,0,0-13.62,12,56.87,56.87,0,0,0-6,6.91c-.33.47-.65.95-1,1.44-1.37-6.52-3.74-13.57-8.42-18.07a36.92,36.92,0,0,0-4.71-3.83,50.54,50.54,0,0,1,13.74-1.76l-.8-2.71a21.4,21.4,0,0,0-4.08.08c-1.75.16-3.59.34-5.51.56s-3.83.47-5.74.79-3.57.64-5,1l-7.34-1.2a44,44,0,0,0-6.87-.55A88.59,88.59,0,0,0,120,172.83,90.79,90.79,0,0,0,92.73,189a86.56,86.56,0,0,0-19.65,24.68,83.51,83.51,0,0,0-9.39,33.52c-.42,6.26-.64,15.67,4,20.5,3.61,3.73,7.85,7,12.77,8.66a13.16,13.16,0,0,0,4.25.79c6.13-.05,9.19-6.56,11.23-11.48a96,96,0,0,0,5.28-18.84c.48-2.5.89-5.24,1.29-8.62,3.22-27,16.22-39,29.27-48.93l1.36-1-.81-4.19-2.87,2.18c-13.09,10-27.35,23-30.74,51.51-1.32,11-6.1,34.77-22.42,26.38A14.36,14.36,0,0,1,69,255c-3.12-11.86.82-26,6-36.93a86.13,86.13,0,0,1,16.3-23.48A82.07,82.07,0,0,1,114.39,178a61.66,61.66,0,0,1,27.24-6.31A44.18,44.18,0,0,1,156,174a84.92,84.92,0,0,0-21.25,17.81A93.78,93.78,0,0,0,122,211.72a119.9,119.9,0,0,0-7.51,20.61q-2.72,10.38-5.27,20a135.4,135.4,0,0,1-6.08,17.89,44,44,0,0,1-9.9,14.53,43.71,43.71,0,0,1-16.7,9.74Q66.22,298,49.93,298a35.16,35.16,0,0,1-9.67-1.44,32.32,32.32,0,0,1-9.18-4.23,26.11,26.11,0,0,1-6.95-6.87c-.13-.2-.26-.39-.38-.59a15.26,15.26,0,0,1-1.65-12.08c3.53-13.21,12.3-16,12.3-16l-.76-4.57a30.9,30.9,0,0,0-11,9.82q-4.32,6.23-4.32,15.81,0,7,3.52,11.5a25.31,25.31,0,0,0,8.86,7.11,41.28,41.28,0,0,0,11.66,3.67,72.89,72.89,0,0,0,11.74,1,74.43,74.43,0,0,0,15.65-1.68,72.57,72.57,0,0,0,15-5,71,71,0,0,0,13.5-8.06,68.36,68.36,0,0,0,11.42-11A65.54,65.54,0,0,0,120,258.12a150.67,150.67,0,0,0,6.07-18.53q2.39-9.34,4.23-18.52a102.27,102.27,0,0,1,5.11-17.49,63.68,63.68,0,0,1,8.7-15.41A47.37,47.37,0,0,1,159,175.79a26,26,0,0,1,9.58,9.58,25.38,25.38,0,0,1,3.67,13.1c0,.88,0,1.73-.08,2.55q-1.67-.28-3.33-.42a36.16,36.16,0,0,0-9.91.57,36.19,36.19,0,0,1,9.86-.08c1.12.15,2.23.35,3.33.61a31.23,31.23,0,0,1-.57,4,56.65,56.65,0,0,0-7.37.62,56.1,56.1,0,0,1,7.22,0,20.34,20.34,0,0,1-2.18,5.55,41.86,41.86,0,0,1-6.63,8.63q-3.6,3.51-6.55,6.23a8.09,8.09,0,0,0-3,6.07,6.42,6.42,0,0,0,3.19,5.5q3.19,2.16,7,5a33.86,33.86,0,0,1,7,7q3.18,4.25,3.19,11.42,0,15.5-8.78,24.28t-24.44,8.78a47,47,0,0,1-6.23-.4,31.15,31.15,0,0,1-6.23-1.51,11.93,11.93,0,0,0,7.27-3.36,9.49,9.49,0,0,0,3.27-7.19,8.15,8.15,0,0,0-2.71-6.3,10,10,0,0,0-13.65.47,10.18,10.18,0,0,0-2.8,7.27,12.61,12.61,0,0,0,1.68,6.63,14.92,14.92,0,0,0,4.31,4.63,17.27,17.27,0,0,0,6,2.64,28.94,28.94,0,0,0,6.71.79,65.45,65.45,0,0,0,7.82-.47q4-.48,7.67-1.28a27.54,27.54,0,0,0,10.94-5A57.92,57.92,0,0,0,174.74,282a53.25,53.25,0,0,0,7.66-12,28.13,28.13,0,0,0,3-11.66q0-9.59-3.17-15.33a33.89,33.89,0,0,0-7.05-9.19,57.13,57.13,0,0,0-7-5.43c-2.75-1.72-4.3-4-1.87-6.66,1.56-1.71,3-3.87,4.75-5.33,1.94-1.62,4.6-2.59,6.84-3.71,3.2-1.59,6.5-3.61,8.32-6.58a81.75,81.75,0,0,1,17.75.49A82.39,82.39,0,0,0,186.62,205.22Z" fill="#67963a"/>
      </g>
    </g>
    <g id="e2021964-4dcb-4067-a02d-46535877a6e6" data-name="Fibre Arts">
      <path d="M151.55,352.66v10h-1.2V343.43h9.3v1.11h-8.1v7h8.1v1.1Z" fill="#67963a"/>
      <path d="M168.26,362.71V343.43h1.2v19.28Z" fill="#67963a"/>
      <path d="M189.56,361.14a7.4,7.4,0,0,1-4.77,1.57H178.1V343.43h5.22a6.24,6.24,0,0,1,4,1.16,4.18,4.18,0,0,1,1.56,3.46,3.92,3.92,0,0,1-2.31,3.72,6.45,6.45,0,0,1,3.63,1.84,5.17,5.17,0,0,1-.6,7.53Zm-3.15-15.63a4.68,4.68,0,0,0-3-1H179.3v7h4.29a4.28,4.28,0,0,0,2.88-1,3.15,3.15,0,0,0,1.14-2.53A3,3,0,0,0,186.41,345.51Zm2.25,8.34a6.09,6.09,0,0,0-3.84-1.19H179.3v8.94h5.52a6.08,6.08,0,0,0,3.87-1.24,4.06,4.06,0,0,0,0-6.51Z" fill="#67963a"/>
      <path d="M211.19,362.71l-6.81-9.64h-2.31v9.64h-1.2V343.43h4.95a8.1,8.1,0,0,1,2.28.31,5.4,5.4,0,0,1,1.86.92,4.45,4.45,0,0,1,1.25,1.5,4.33,4.33,0,0,1,.46,2,5,5,0,0,1-.43,2.18,4,4,0,0,1-1.23,1.52,5.52,5.52,0,0,1-1.88.87,9.27,9.27,0,0,1-2.37.29l6.87,9.64Zm-1.14-16.14a3.26,3.26,0,0,0-1-1.13,4.74,4.74,0,0,0-1.47-.68,6.94,6.94,0,0,0-1.8-.22h-3.72V352h4.05a4.74,4.74,0,0,0,3.11-1,3.88,3.88,0,0,0,.82-4.42Z" fill="#67963a"/>
      <path d="M221.24,362.71V343.43h10.29v1.11h-9.06v7h9.06v1.18h-9.06v8.86h9.06v1.11Z" fill="#67963a"/>
      <path d="M269.78,362.71l-2.46-5.78h-9.75l-2.49,5.78h-1.2l8.55-19.9,8.58,19.9Zm-7.35-17.09-4.38,10.2h8.76Z" fill="#67963a"/>
      <path d="M289.16,362.71l-6.81-9.64H280v9.64h-1.2V343.43h5a8.1,8.1,0,0,1,2.28.31,5.4,5.4,0,0,1,1.86.92,4.45,4.45,0,0,1,1.25,1.5,4.33,4.33,0,0,1,.46,2,5,5,0,0,1-.43,2.18,4,4,0,0,1-1.23,1.52,5.52,5.52,0,0,1-1.88.87,9.27,9.27,0,0,1-2.37.29l6.87,9.64ZM288,346.57a3.26,3.26,0,0,0-1-1.13,4.74,4.74,0,0,0-1.47-.68,6.94,6.94,0,0,0-1.8-.22H280V352h4a4.74,4.74,0,0,0,3.11-1,3.88,3.88,0,0,0,.82-4.42Z" fill="#67963a"/>
      <path d="M303.05,344.54v18.17h-1.23V344.54h-4.74v-1.11h10.71v1.11Z" fill="#67963a"/>
      <path d="M323,362.54a8.77,8.77,0,0,1-2.76.38q-4.92,0-6.33-4.18l1.23-.38c.7,2.3,2.4,3.46,5.1,3.46a5.8,5.8,0,0,0,3.63-1,3.67,3.67,0,0,0,1.35-3.08,3.89,3.89,0,0,0-1.59-3.18,6.58,6.58,0,0,0-1.29-.79c-.58-.29-1.32-.61-2.22-1a14.81,14.81,0,0,1-3.48-1.78,4.07,4.07,0,0,1,0-6.43,6,6,0,0,1,3.84-1.24q3.78,0,5.34,2.54l-1.17.46a3.87,3.87,0,0,0-1.44-1.33,5.58,5.58,0,0,0-2.73-.59,4.74,4.74,0,0,0-2.94.89,3,3,0,0,0-1.26,2.49,3,3,0,0,0,1.32,2.4,17.3,17.3,0,0,0,3,1.46,21.85,21.85,0,0,1,2.43,1.12,8.57,8.57,0,0,1,1.65,1.12,4.89,4.89,0,0,1,1.74,3.83A4.66,4.66,0,0,1,323,362.54Z" fill="#67963a"/>
    </g>
  </g>
</svg>
