<svg xmlns="http://www.w3.org/2000/svg" viewBox="0 0 800 190">
  <title>fustus3</title>
  <g id="3ec0d6e7-b429-48fe-ba5c-2e9cc921642c" data-name="wide fustus">
    <g>
      <g>
        <g>
          <path d="M109,12.92a75.58,75.58,0,0,1,11.5.88q5.75.87,11.5,2t11.42,2a73.74,73.74,0,0,0,11.41.88,14.58,14.58,0,0,0,3.84-.48,16.45,16.45,0,0,0,2.39-5h3.2a12.37,12.37,0,0,1-3.52,8.06A23.27,23.27,0,0,1,153,26.49a39.71,39.71,0,0,1-9.5,2.72,45.27,45.27,0,0,1-8.87.64,22,22,0,0,0-8.06,10.38A74.07,74.07,0,0,0,122.37,55c-1,5.27-1.65,10.57-2.07,15.89s-1,10-1.6,13.9h18.69V88h-19a82.59,82.59,0,0,1-9.66,24.2,66.8,66.8,0,0,1-15.81,18,67.46,67.46,0,0,1-21.32,11.17,84.34,84.34,0,0,1-25.88,3.84,68.47,68.47,0,0,1-12.77-1.28,42.22,42.22,0,0,1-12.3-4.31,28.75,28.75,0,0,1-9.34-8,19.72,19.72,0,0,1-3.76-12.3,19.32,19.32,0,0,1,2.56-10.06A23.59,23.59,0,0,1,16.81,102a35.68,35.68,0,0,1,9.42-4.72,67.73,67.73,0,0,1,10.86-2.63A70.7,70.7,0,0,1,48,93.73a87.08,87.08,0,0,1,9.58.48q-2.39-3.51-4.31-6.39a44.49,44.49,0,0,1-3.35-5.91,29.07,29.07,0,0,1-2.16-6.38,38.59,38.59,0,0,1-.72-8A47.17,47.17,0,0,1,52.34,45,55.63,55.63,0,0,1,66.4,27.85a65.55,65.55,0,0,1,19.8-11A67.92,67.92,0,0,1,109,12.92ZM49.71,65.62a38.31,38.31,0,0,0,1.91,12.94A29.57,29.57,0,0,0,57,87.82,46.91,46.91,0,0,0,65,95.17q4.63,3.36,10.06,7.19l-.64,2.39a29.85,29.85,0,0,1-6.23-2.47c-1.59-.91-3.14-1.76-4.63-2.56a22.08,22.08,0,0,0-5.11-1.92,33.75,33.75,0,0,0-7.83-.71,69,69,0,0,0-12.45,1.19,39.91,39.91,0,0,0-12,4.16,26.37,26.37,0,0,0-8.94,7.82,20.31,20.31,0,0,0-3.52,12.22,14,14,0,0,0,3.36,9.58,23.18,23.18,0,0,0,8.22,6,41.37,41.37,0,0,0,10.46,3,64.94,64.94,0,0,0,10.06.88,62.3,62.3,0,0,0,23-3.91,49.43,49.43,0,0,0,17-11,56.51,56.51,0,0,0,11.58-17.09,97,97,0,0,0,6.71-22H82.45l1.27-3.19h21.09q1.59-9.27,3.19-16.53a81.89,81.89,0,0,1,4.23-13.66A70.72,70.72,0,0,1,119,42.07a111.35,111.35,0,0,1,10.86-13.34L114,25.22a74.61,74.61,0,0,0-16.21-1.76A56.33,56.33,0,0,0,80,26.34a48.19,48.19,0,0,0-15.41,8.3A41.43,41.43,0,0,0,53.78,47.9,37.72,37.72,0,0,0,49.71,65.62Z" fill="#67963a"/>
          <path d="M132.43,141.64a9.56,9.56,0,0,1-6.38.72,6.55,6.55,0,0,1-5-4.39,28.1,28.1,0,0,1,.4-9.5q1-5.35,2-9.9a66.18,66.18,0,0,0,1.2-7.19q.24-2.64-2-1.2a15.93,15.93,0,0,0-2.87,2.64,18.53,18.53,0,0,0-1.76,2.63,2.12,2.12,0,0,1-1-.4c-.42-.26-.9-.56-1.44-.88a30.68,30.68,0,0,1,7.27-7.58,14.29,14.29,0,0,1,10.14-3,3.27,3.27,0,0,1,2.72,1.76,18.14,18.14,0,0,1,1,2.71,32.57,32.57,0,0,1-.32,6.39c-.32,2.13-.72,4.24-1.2,6.31s-1,4.15-1.52,6.23a61.2,61.2,0,0,0-1.28,6.47q0,1.44,1.68,1.83a2.47,2.47,0,0,0,2.64-.71,37.4,37.4,0,0,0,10.78-13.74,101.56,101.56,0,0,0,6-16.61h10.55c-.43,1.81-.94,3.92-1.52,6.31s-1.17,4.87-1.76,7.43-1.14,5-1.68,7.34a49.67,49.67,0,0,0-1,6,8.49,8.49,0,0,0,.16,3.52c.26.69.82.61,1.67-.24l5.59-7.35,2.08,1.44c-1.49,2-2.66,3.65-3.51,4.87a28.59,28.59,0,0,1-2.24,2.87c-.64.7-1.2,1.28-1.68,1.76s-1,1-1.67,1.52a9.16,9.16,0,0,1-2.88,1.59,11.56,11.56,0,0,1-3.51.72,6.41,6.41,0,0,1-3.2-.64,3.74,3.74,0,0,1-1.91-2.63,17.74,17.74,0,0,1,.08-6.07q.55-3.19.88-6.07a48.49,48.49,0,0,1-6.63,8.7A29.27,29.27,0,0,1,132.43,141.64Z" fill="#67963a"/>
          <path d="M194.56,101.72a22.05,22.05,0,0,1,4.07.4,12.59,12.59,0,0,1,4,1.43,10.93,10.93,0,0,1,3.12,2.64,6.17,6.17,0,0,1,1.27,4,3.52,3.52,0,0,1-1.75,3.27,11.17,11.17,0,0,1-4.47,1.36,6,6,0,0,1-4.95-1.83,4.57,4.57,0,0,1-1.6-3.92,8.09,8.09,0,0,1,1.2-2.71,6.43,6.43,0,0,1,2.95-1.76l-3.51-.16a12.32,12.32,0,0,0-2.88.4,15.06,15.06,0,0,0-3,1.12,7.53,7.53,0,0,0-2.4,1.84,4,4,0,0,0-1,2.71,3.59,3.59,0,0,0,1.36,2.88,14.07,14.07,0,0,0,3.36,2q2,.88,4.39,1.76a18.37,18.37,0,0,1,4.39,2.31,13.21,13.21,0,0,1,3.35,3.52,9.71,9.71,0,0,1,1.36,5.43,10.46,10.46,0,0,1-1.84,6.15,17.28,17.28,0,0,1-4.55,4.47,19.72,19.72,0,0,1-6,2.71,24.09,24.09,0,0,1-6.31.88c-1.7,0-3.4-.08-5.11-.24a14.15,14.15,0,0,1-4.63-1.2,8.07,8.07,0,0,1-3.35-2.79,8.38,8.38,0,0,1-1.28-4.87,5.67,5.67,0,0,1,2.4-4.71,8.21,8.21,0,0,1,5.11-1.84,7.41,7.41,0,0,1,4.47,1.28q1.75,1.28,1.76,4.31a3.88,3.88,0,0,1-1.92,3.75,17,17,0,0,1-3.67,1.52,1.46,1.46,0,0,0,.87.56,11.27,11.27,0,0,0,1.84.4,15.34,15.34,0,0,0,2.24.16h2.07a10.84,10.84,0,0,0,6.15-2,6.45,6.45,0,0,0,3-5.67,3.22,3.22,0,0,0-.16-1,7.5,7.5,0,0,0-.32-.79,15.16,15.16,0,0,0-5.11-2.88A41.38,41.38,0,0,1,184,124.4a15.07,15.07,0,0,1-4.39-3.28,8.29,8.29,0,0,1-1.84-5.83,12.19,12.19,0,0,1,1.44-6.07,12.62,12.62,0,0,1,3.83-4.23,16.72,16.72,0,0,1,5.43-2.47A23.38,23.38,0,0,1,194.56,101.72Z" fill="#67963a"/>
          <path d="M210.37,106H220l7.19-33.85,11.34-2.09L231,106h10.38l-1,4H230.17l-4,20.28c-.32,3.41-.22,5.46.32,6.15s1.35.54,2.47-.48a29.92,29.92,0,0,0,4-4.79c1.54-2.18,3.21-4.44,5-6.78l2.55,2.07a17.78,17.78,0,0,1-2.15,3.91,50.73,50.73,0,0,1-3.92,5,24.71,24.71,0,0,1-6.55,5.67,12.83,12.83,0,0,1-8.62,1.68q-4.16-.48-4.63-3.59a24.54,24.54,0,0,1,.8-8.71L219.31,110h-9.9Z" fill="#67963a"/>
          <path d="M258,141.64a9.6,9.6,0,0,1-6.39.72,6.55,6.55,0,0,1-4.95-4.39,27.6,27.6,0,0,1,.4-9.5c.69-3.57,1.36-6.87,2-9.9a66.18,66.18,0,0,0,1.2-7.19q.24-2.64-2-1.2a16,16,0,0,0-2.88,2.64,19.42,19.42,0,0,0-1.76,2.63,2.05,2.05,0,0,1-1-.4l-1.44-.88a30.5,30.5,0,0,1,7.27-7.58,14.27,14.27,0,0,1,10.14-3,3.25,3.25,0,0,1,2.71,1.76,16.14,16.14,0,0,1,1,2.71,31.82,31.82,0,0,1-.32,6.39c-.32,2.13-.72,4.24-1.2,6.31s-1,4.15-1.51,6.23A58.77,58.77,0,0,0,258,133.5c0,1,.56,1.57,1.67,1.83a2.47,2.47,0,0,0,2.64-.71,37.29,37.29,0,0,0,10.78-13.74,101.6,101.6,0,0,0,6-16.61h10.54c-.43,1.81-.93,3.92-1.52,6.31s-1.17,4.87-1.75,7.43-1.15,5-1.68,7.34a49.94,49.94,0,0,0-1,6,8.49,8.49,0,0,0,.16,3.52c.27.69.82.61,1.68-.24l5.59-7.35,2.07,1.44c-1.49,2-2.66,3.65-3.51,4.87a27.2,27.2,0,0,1-2.24,2.87c-.63.7-1.19,1.28-1.67,1.76s-1,1-1.68,1.52a9.1,9.1,0,0,1-2.87,1.59,11.69,11.69,0,0,1-3.52.72,6.39,6.39,0,0,1-3.19-.64,3.73,3.73,0,0,1-1.92-2.63,18,18,0,0,1,.08-6.07q.56-3.19.88-6.07a48.49,48.49,0,0,1-6.63,8.7A29.23,29.23,0,0,1,258,141.64Z" fill="#67963a"/>
          <path d="M320.08,101.72a22,22,0,0,1,4.07.4,12.74,12.74,0,0,1,4,1.43,10.89,10.89,0,0,1,3.11,2.64,6.18,6.18,0,0,1,1.28,4,3.52,3.52,0,0,1-1.76,3.27,11.17,11.17,0,0,1-4.47,1.36,6.07,6.07,0,0,1-4.95-1.83,4.6,4.6,0,0,1-1.6-3.92,8.09,8.09,0,0,1,1.2-2.71,6.42,6.42,0,0,1,3-1.76l-3.52-.16a12.24,12.24,0,0,0-2.87.4,14.93,14.93,0,0,0-3,1.12,7.49,7.49,0,0,0-2.39,1.84,4,4,0,0,0-1,2.71,3.56,3.56,0,0,0,1.36,2.88,14.19,14.19,0,0,0,3.35,2q2,.88,4.39,1.76a18.18,18.18,0,0,1,4.39,2.31A13.4,13.4,0,0,1,328,123a9.79,9.79,0,0,1,1.36,5.43,10.53,10.53,0,0,1-1.84,6.15A17.43,17.43,0,0,1,323,139a19.83,19.83,0,0,1-6,2.71,24.21,24.21,0,0,1-6.31.88c-1.71,0-3.41-.08-5.11-.24a14,14,0,0,1-4.63-1.2,8,8,0,0,1-3.36-2.79,8.38,8.38,0,0,1-1.27-4.87,5.66,5.66,0,0,1,2.39-4.71,8.23,8.23,0,0,1,5.11-1.84,7.41,7.41,0,0,1,4.47,1.28q1.75,1.28,1.76,4.31a3.88,3.88,0,0,1-1.92,3.75,16.84,16.84,0,0,1-3.67,1.52,1.49,1.49,0,0,0,.88.56,11,11,0,0,0,1.84.4,15.21,15.21,0,0,0,2.23.16h2.08a10.84,10.84,0,0,0,6.15-2,6.44,6.44,0,0,0,2.95-5.67,2.93,2.93,0,0,0-.16-1,5.82,5.82,0,0,0-.32-.79,15.06,15.06,0,0,0-5.11-2.88,41.38,41.38,0,0,1-5.43-2.23,15.2,15.2,0,0,1-4.39-3.28,8.29,8.29,0,0,1-1.84-5.83,12.19,12.19,0,0,1,1.44-6.07,12.84,12.84,0,0,1,3.83-4.23,16.81,16.81,0,0,1,5.43-2.47A23.44,23.44,0,0,1,320.08,101.72Z" fill="#67963a"/>
        </g>
        <g>
          <path d="M550.22,141.64a9.6,9.6,0,0,1-6.39.72,6.53,6.53,0,0,1-5-4.39,27.6,27.6,0,0,1,.4-9.5q1-5.35,2-9.9a66.18,66.18,0,0,0,1.2-7.19q.24-2.64-2-1.2a16.28,16.28,0,0,0-2.87,2.64,18.53,18.53,0,0,0-1.76,2.63,2.12,2.12,0,0,1-1-.4l-1.43-.88a30.63,30.63,0,0,1,7.26-7.58,14.31,14.31,0,0,1,10.15-3,3.25,3.25,0,0,1,2.71,1.76,18.14,18.14,0,0,1,1,2.71,32.57,32.57,0,0,1-.32,6.39c-.32,2.13-.72,4.24-1.2,6.31s-1,4.15-1.52,6.23a61.21,61.21,0,0,0-1.27,6.47c0,1,.56,1.57,1.67,1.83a2.47,2.47,0,0,0,2.64-.71,37.29,37.29,0,0,0,10.78-13.74,101.6,101.6,0,0,0,6-16.61h10.54c-.43,1.81-.93,3.92-1.52,6.31s-1.17,4.87-1.76,7.43-1.14,5-1.67,7.34a48,48,0,0,0-1,6,8.49,8.49,0,0,0,.16,3.52q.39,1,1.68-.24l5.59-7.35,2.07,1.44c-1.49,2-2.66,3.65-3.51,4.87a28.59,28.59,0,0,1-2.24,2.87c-.64.7-1.19,1.28-1.67,1.76s-1,1-1.68,1.52a9.16,9.16,0,0,1-2.88,1.59,11.56,11.56,0,0,1-3.51.72,6.39,6.39,0,0,1-3.19-.64,3.73,3.73,0,0,1-1.92-2.63,18,18,0,0,1,.08-6.07q.55-3.19.88-6.07a48.49,48.49,0,0,1-6.63,8.7A29.23,29.23,0,0,1,550.22,141.64Z" fill="#67963a"/>
          <path d="M703.23,141.64a9.59,9.59,0,0,1-6.39.72,6.55,6.55,0,0,1-5-4.39,28.1,28.1,0,0,1,.4-9.5q1-5.35,2-9.9a66.18,66.18,0,0,0,1.2-7.19q.24-2.64-2-1.2a16,16,0,0,0-2.88,2.64,19.38,19.38,0,0,0-1.75,2.63,2,2,0,0,1-1-.4l-1.44-.88a30.5,30.5,0,0,1,7.27-7.58,14.27,14.27,0,0,1,10.14-3,3.27,3.27,0,0,1,2.72,1.76,17,17,0,0,1,.95,2.71,31.82,31.82,0,0,1-.32,6.39c-.32,2.13-.71,4.24-1.19,6.31s-1,4.15-1.52,6.23a61.2,61.2,0,0,0-1.28,6.47q0,1.44,1.68,1.83a2.45,2.45,0,0,0,2.63-.71,37.19,37.19,0,0,0,10.78-13.74,101.6,101.6,0,0,0,6-16.61h10.54c-.42,1.81-.93,3.92-1.51,6.31s-1.18,4.87-1.76,7.43-1.15,5-1.68,7.34a49.94,49.94,0,0,0-1,6,8.67,8.67,0,0,0,.16,3.52q.4,1,1.68-.24l5.59-7.35,2.08,1.44c-1.5,2-2.66,3.65-3.52,4.87a27.31,27.31,0,0,1-2.23,2.87c-.64.7-1.2,1.28-1.68,1.76s-1,1-1.68,1.52a9,9,0,0,1-2.87,1.59,11.56,11.56,0,0,1-3.51.72,6.41,6.41,0,0,1-3.2-.64,3.69,3.69,0,0,1-1.91-2.63,17.74,17.74,0,0,1,.08-6.07q.55-3.19.87-6.07a48,48,0,0,1-6.62,8.7A29.27,29.27,0,0,1,703.23,141.64Z" fill="#67963a"/>
          <path d="M624,103.63a9.64,9.64,0,0,1,6.39-.72,6.56,6.56,0,0,1,5,4.4,28.1,28.1,0,0,1-.4,9.5q-1,5.35-2,9.9a66.18,66.18,0,0,0-1.2,7.19q-.24,2.63,2,1.2a14.47,14.47,0,0,0,2.88-2.72,25.12,25.12,0,0,0,1.75-2.71,2,2,0,0,1,1,.48,17.16,17.16,0,0,0,1.44.95,29.28,29.28,0,0,1-7.27,7.51,15.08,15.08,0,0,1-10.14,3,3.19,3.19,0,0,1-2.71-1.75,16.23,16.23,0,0,1-1-2.72,22.84,22.84,0,0,1,.24-6.39q.55-3.19,1.27-6.3t1.52-6.31a65.94,65.94,0,0,0,1.28-6.55c0-1-.56-1.54-1.68-1.76a2.76,2.76,0,0,0-2.63.64,36.73,36.73,0,0,0-6.15,6.39,50.41,50.41,0,0,0-4.63,7.43,60.37,60.37,0,0,0-3.44,8.14q-1.44,4.23-2.55,8.54H592.38c.42-1.8.93-3.91,1.51-6.3s1.17-4.87,1.76-7.43,1.14-5,1.68-7.43a51.94,51.94,0,0,0,1-6.07,8.62,8.62,0,0,0-.16-3.51q-.4-1-1.68.24c-.86,1.28-1.76,2.53-2.72,3.75s-1.91,2.48-2.87,3.76l-2.08-1.6c1.39-2,2.53-3.62,3.44-4.79s1.67-2.13,2.31-2.88a18.29,18.29,0,0,1,1.68-1.75q.72-.64,1.68-1.44a9.2,9.2,0,0,1,2.87-1.6,12.2,12.2,0,0,1,3.51-.72,6.41,6.41,0,0,1,3.2.64,3.77,3.77,0,0,1,1.92,2.64,18.26,18.26,0,0,1-.08,6.07q-.57,3.19-.88,6.07a50.85,50.85,0,0,1,6.62-8.79A27,27,0,0,1,624,103.63Z" fill="#67963a"/>
          <path d="M644.84,146a7.74,7.74,0,0,1,3.91,2,5.86,5.86,0,0,1,1.84,4.47,29.64,29.64,0,0,1-.56,5,45.35,45.35,0,0,0,11.9-10.39,94.24,94.24,0,0,0,9.82-15.33,70,70,0,0,1-8.94,6.71,30.27,30.27,0,0,1-6.87,3,17.22,17.22,0,0,1-7.35.64,3.05,3.05,0,0,1-1.75-1.43,6.64,6.64,0,0,1-.64-2.16,12.63,12.63,0,0,1-.08-2.56c0-.9.08-1.73.08-2.47q.63-3.51,1.68-8.07c.69-3,1.25-5.75,1.67-8.14a26.81,26.81,0,0,0,.56-5.35q-.08-1.75-1.68,0a29.37,29.37,0,0,0-3.19,2.79c-.64.7-1.44,1.52-2.39,2.48v-4.79a32.65,32.65,0,0,1,12-8.15,5.54,5.54,0,0,1,4.39-.48,3.43,3.43,0,0,1,3,2.88,28.4,28.4,0,0,1,.24,7.58,50.82,50.82,0,0,1-1.36,7.43q-1,3.67-1.92,7.43a46.84,46.84,0,0,0-1.27,7.42A43.79,43.79,0,0,0,670,128.79a28.08,28.08,0,0,0,7.83-11.58,22,22,0,0,0-2-1.2l-2.07-1.12a6.17,6.17,0,0,1-1.84-1.51,7.26,7.26,0,0,1-1.28-2.72,11.54,11.54,0,0,1,.64-5.35,5.77,5.77,0,0,1,3.36-3.59,6.55,6.55,0,0,1,5.43-.56,5.57,5.57,0,0,1,4,3.59,9,9,0,0,1,.8,6,24.33,24.33,0,0,1-2.08,6q-2.55,5.11-4.71,10a93.46,93.46,0,0,1-4.87,9.5A132.89,132.89,0,0,1,664.56,149a48.94,48.94,0,0,1-10.7,10.38,19.1,19.1,0,0,1-7.26,2.4,9.9,9.9,0,0,1-7.11-1.76,6.5,6.5,0,0,1-2.55-3,8.42,8.42,0,0,1-.64-4,8.17,8.17,0,0,1,1.19-3.75m0,0c.75-1.63,4.16-3.74,7.35-3.19a7,7,0,0,1,3.91,2" fill="#67963a"/>
          <path d="M775.69,103.63a9.64,9.64,0,0,1,6.39-.72,6.56,6.56,0,0,1,4.95,4.4,28.1,28.1,0,0,1-.4,9.5c-.7,3.57-1.36,6.87-2,9.9a66.18,66.18,0,0,0-1.2,7.19q-.24,2.63,2,1.2a14.11,14.11,0,0,0,2.87-2.72,23.75,23.75,0,0,0,1.76-2.71,2,2,0,0,1,1,.48,17.16,17.16,0,0,0,1.44.95,29.62,29.62,0,0,1-7.27,7.51,15.11,15.11,0,0,1-10.14,3,3.22,3.22,0,0,1-2.72-1.75,18.24,18.24,0,0,1-1-2.72,23.62,23.62,0,0,1,.24-6.39c.38-2.13.8-4.23,1.28-6.3s1-4.18,1.52-6.31a65.94,65.94,0,0,0,1.28-6.55c0-1-.56-1.54-1.68-1.76a2.78,2.78,0,0,0-2.64.64,36.67,36.67,0,0,0-6.14,6.39,50.47,50.47,0,0,0-4.64,7.43,61.63,61.63,0,0,0-3.43,8.14q-1.44,4.23-2.55,8.54H744.06c.43-1.8.94-3.91,1.52-6.3s1.17-4.87,1.76-7.43,1.14-5,1.68-7.43a51.64,51.64,0,0,0,1-6.07,8.44,8.44,0,0,0-.16-3.51c-.26-.69-.82-.61-1.67.24-.86,1.28-1.76,2.53-2.72,3.75s-1.91,2.48-2.87,3.76l-2.08-1.6c1.38-2,2.53-3.62,3.43-4.79s1.68-2.13,2.32-2.88A18.29,18.29,0,0,1,748,107c.48-.43,1-.91,1.67-1.44a9.38,9.38,0,0,1,2.88-1.6,12.2,12.2,0,0,1,3.51-.72,6.43,6.43,0,0,1,3.2.64,3.76,3.76,0,0,1,1.91,2.64,17.74,17.74,0,0,1-.08,6.07q-.55,3.19-.87,6.07a50.85,50.85,0,0,1,6.62-8.79A26.88,26.88,0,0,1,775.69,103.63Z" fill="#67963a"/>
          <path d="M510.29,31.41a6.61,6.61,0,0,0-4.94.31,4.61,4.61,0,0,0-1.29.9,1.18,1.18,0,0,0-.34.51,1.3,1.3,0,0,0,0,.52,5.6,5.6,0,0,0,3.42,4,8.35,8.35,0,0,0,5.41.14,2.43,2.43,0,0,0,1.26-.68c.68-.82.32-2.34-.2-3.16A6.51,6.51,0,0,0,510.29,31.41Z" fill="#67963a"/>
          <path d="M532.32,47.94a8.38,8.38,0,0,0,.4-1,10.33,10.33,0,0,0,.55-3.07,104.47,104.47,0,0,1,21.5-8.07,104.71,104.71,0,0,0-21.48,7.12,24.83,24.83,0,0,0-.39-3.76c-.14-.83-.29-1.68-.46-2.54.43-.75.87-1.48,1.35-2.19a56.77,56.77,0,0,1,5.69-7,129.08,129.08,0,0,1,13.26-12.35,129.18,129.18,0,0,0-13.62,12,58.69,58.69,0,0,0-6,6.91q-.49.7-1,1.44c-1.37-6.52-3.75-13.57-8.42-18.07a37,37,0,0,0-4.72-3.83,50.59,50.59,0,0,1,13.74-1.76L532,9.09a21.29,21.29,0,0,0-4.07.08c-1.76.16-3.59.34-5.51.56s-3.83.47-5.75.79-3.57.64-4.95,1l-7.35-1.2a43.94,43.94,0,0,0-6.87-.55,88.63,88.63,0,0,0-31.86,5.82,90.92,90.92,0,0,0-27.23,16.21,86.53,86.53,0,0,0-19.64,24.68A83.69,83.69,0,0,0,409.38,90c-.42,6.26-.63,15.67,4,20.5,3.61,3.73,7.85,7,12.77,8.66a13.16,13.16,0,0,0,4.25.79c6.13,0,9.19-6.56,11.24-11.48a96,96,0,0,0,5.27-18.84c.48-2.5.89-5.24,1.3-8.62C451.45,54,464.46,42,477.5,32l1.36-1-.81-4.19L475.19,29c-13.1,10-27.36,23-30.75,51.51-1.31,11-6.09,34.77-22.42,26.38a14.39,14.39,0,0,1-7.29-9.21c-3.12-11.86.82-26,6-36.93A85.88,85.88,0,0,1,437,37.27a82.21,82.21,0,0,1,23.09-16.6,61.7,61.7,0,0,1,27.24-6.31,44.24,44.24,0,0,1,14.39,2.39q-13.27,8.15-21.25,17.81a93.84,93.84,0,0,0-12.79,19.88,120.75,120.75,0,0,0-7.51,20.61q-2.71,10.38-5.27,20a136.87,136.87,0,0,1-6.07,17.89,44.22,44.22,0,0,1-9.91,14.53,43.66,43.66,0,0,1-16.69,9.74q-10.32,3.53-26.6,3.52a35,35,0,0,1-9.66-1.44,32.07,32.07,0,0,1-9.18-4.23,25.82,25.82,0,0,1-6.95-6.87c-.14-.2-.26-.39-.39-.59a15.35,15.35,0,0,1-1.65-12.08c3.53-13.21,12.3-16,12.3-16l-.76-4.57a31,31,0,0,0-11,9.82Q364,111,364,120.56q0,7,3.51,11.5a25.35,25.35,0,0,0,8.87,7.11A41.22,41.22,0,0,0,388,142.84a72.89,72.89,0,0,0,11.74,1,74.29,74.29,0,0,0,15.65-1.68,72.66,72.66,0,0,0,15-4.95,70.9,70.9,0,0,0,13.49-8.06,68,68,0,0,0,11.42-11,65.54,65.54,0,0,0,10.38-17.33,150.67,150.67,0,0,0,6.07-18.53Q474.2,73,476,63.79a102.91,102.91,0,0,1,5.11-17.49,63.86,63.86,0,0,1,8.71-15.41A47.44,47.44,0,0,1,504.7,18.51a25.82,25.82,0,0,1,9.58,9.58A25.4,25.4,0,0,1,518,41.19c0,.88,0,1.73-.09,2.55-1.1-.2-2.21-.33-3.33-.42a36.07,36.07,0,0,0-9.9.57,36.11,36.11,0,0,1,9.85-.08,33.65,33.65,0,0,1,3.33.61,29.54,29.54,0,0,1-.57,4,56.49,56.49,0,0,0-7.36.62,55.94,55.94,0,0,1,7.21,0,19.72,19.72,0,0,1-2.18,5.55,41.52,41.52,0,0,1-6.63,8.63c-2.39,2.34-4.58,4.42-6.54,6.23a8.07,8.07,0,0,0-3,6.07A6.4,6.4,0,0,0,502,81c2.12,1.44,4.47,3.09,7,5a33.62,33.62,0,0,1,7,7q3.19,4.23,3.19,11.42,0,15.5-8.78,24.28T486,137.49a46.92,46.92,0,0,1-6.23-.4,30.37,30.37,0,0,1-6.23-1.52,11.89,11.89,0,0,0,7.26-3.35A9.46,9.46,0,0,0,484.1,125a8.15,8.15,0,0,0-2.72-6.3,10,10,0,0,0-13.65.47,10.18,10.18,0,0,0-2.8,7.27,12.61,12.61,0,0,0,1.68,6.63,15,15,0,0,0,4.31,4.63,17.36,17.36,0,0,0,6,2.64,29,29,0,0,0,6.71.79,67.6,67.6,0,0,0,7.82-.47c2.67-.32,5.22-.75,7.67-1.28a27.54,27.54,0,0,0,10.94-5,57.59,57.59,0,0,0,10.38-9.66,53.3,53.3,0,0,0,7.67-12,28.11,28.11,0,0,0,2.95-11.66q0-9.58-3.17-15.33a33.89,33.89,0,0,0-7-9.19,57.13,57.13,0,0,0-7.05-5.43c-2.75-1.72-4.3-4-1.87-6.66,1.56-1.71,3-3.87,4.76-5.33,1.94-1.62,4.59-2.59,6.84-3.71,3.2-1.59,6.49-3.61,8.31-6.58a81.73,81.73,0,0,1,17.75.49A82.3,82.3,0,0,0,532.32,47.94Z" fill="#67963a"/>
        </g>
      </g>
      <g>
        <path d="M310.71,170.72v10H309.5V161.48h9.31v1.11h-8.1v7h8.1v1.11Z" fill="#67963a"/>
        <path d="M327.42,180.76V161.48h1.2v19.28Z" fill="#67963a"/>
        <path d="M348.72,179.2a7.41,7.41,0,0,1-4.77,1.56h-6.69V161.48h5.22a6.24,6.24,0,0,1,4,1.16A4.18,4.18,0,0,1,348,166.1a3.94,3.94,0,0,1-2.31,3.73,6.5,6.5,0,0,1,3.63,1.83,5.18,5.18,0,0,1-.6,7.54Zm-3.15-15.64a4.68,4.68,0,0,0-3-1h-4.11v7h4.29a4.27,4.27,0,0,0,2.88-1,3.17,3.17,0,0,0,1.14-2.54A3,3,0,0,0,345.57,163.56Zm2.25,8.35a6,6,0,0,0-3.84-1.19h-5.52v8.94H344a6.09,6.09,0,0,0,3.87-1.25,4,4,0,0,0,0-6.5Z" fill="#67963a"/>
        <path d="M370.35,180.76l-6.81-9.64h-2.31v9.64H360V161.48h5a8.41,8.41,0,0,1,2.27.31,5.64,5.64,0,0,1,1.87.92,4.75,4.75,0,0,1,1.24,1.5,4.36,4.36,0,0,1,.47,2,5.06,5.06,0,0,1-.44,2.19,4,4,0,0,1-1.23,1.51,5.39,5.39,0,0,1-1.87.88,9.42,9.42,0,0,1-2.38.28l6.88,9.64Zm-1.14-16.13a3.2,3.2,0,0,0-1-1.14,4.94,4.94,0,0,0-1.47-.67,7,7,0,0,0-1.8-.23h-3.72V170h4a4.75,4.75,0,0,0,3.11-1,3.9,3.9,0,0,0,.83-4.41Z" fill="#67963a"/>
        <path d="M380.39,180.76V161.48h10.29v1.11h-9.06v7h9.06v1.19h-9.06v8.86h9.06v1.1Z" fill="#67963a"/>
        <path d="M428.94,180.76,426.48,175h-9.76l-2.49,5.78H413l8.55-19.9,8.58,19.9Zm-7.36-17.09-4.38,10.21H426Z" fill="#67963a"/>
        <path d="M448.31,180.76l-6.81-9.64h-2.31v9.64H438V161.48h4.95a8.48,8.48,0,0,1,2.28.31,5.58,5.58,0,0,1,1.86.92,4.65,4.65,0,0,1,1.25,1.5,4.36,4.36,0,0,1,.46,2,5.06,5.06,0,0,1-.43,2.19,4,4,0,0,1-1.23,1.51,5.35,5.35,0,0,1-1.88.88,9.28,9.28,0,0,1-2.37.28l6.87,9.64Zm-1.14-16.13a3.17,3.17,0,0,0-1-1.14,4.89,4.89,0,0,0-1.48-.67,6.93,6.93,0,0,0-1.8-.23h-3.72V170h4.05a4.75,4.75,0,0,0,3.11-1,3.87,3.87,0,0,0,.82-4.41Z" fill="#67963a"/>
        <path d="M462.2,162.59v18.17H461V162.59h-4.74v-1.11h10.71v1.11Z" fill="#67963a"/>
        <path d="M482.12,180.6a9.07,9.07,0,0,1-2.76.38q-4.92,0-6.33-4.19l1.24-.38q1,3.47,5.09,3.46a5.74,5.74,0,0,0,3.63-1,3.65,3.65,0,0,0,1.35-3.07,3.93,3.93,0,0,0-1.59-3.19,7.16,7.16,0,0,0-1.29-.78c-.58-.29-1.32-.61-2.22-1a14.42,14.42,0,0,1-3.47-1.79,4.05,4.05,0,0,1,0-6.42,6,6,0,0,1,3.84-1.24q3.78,0,5.35,2.53l-1.17.46a4,4,0,0,0-1.45-1.32,5.47,5.47,0,0,0-2.73-.59,4.7,4.7,0,0,0-2.94.89,3,3,0,0,0,.06,4.88,16.58,16.58,0,0,0,3,1.46,25.15,25.15,0,0,1,2.44,1.12,8.79,8.79,0,0,1,1.64,1.12,4.93,4.93,0,0,1,1.74,3.84A4.66,4.66,0,0,1,482.12,180.6Z" fill="#67963a"/>
      </g>
    </g>
  </g>
</svg>
