<svg xmlns="http://www.w3.org/2000/svg" xmlns:xlink="http://www.w3.org/1999/xlink" viewBox="0 0 385.76 286.14">
  <defs>
    <clipPath id="4148e792-c8de-4c83-9e71-a30e95ceb86e">
      <rect x="10.09" y="12.53" width="367.91" height="260.07" fill="none"/>
    </clipPath>
  </defs>
  <title>fustus</title>
  <g id="6abc50af-9aa9-48c3-9504-8339fda6cf62" data-name="Layer 3">
    <g clip-path="url(#4148e792-c8de-4c83-9e71-a30e95ceb86e)">
      <path d="M292.21,55.7a12.69,12.69,0,0,0-9.51.6A8.86,8.86,0,0,0,280.19,58a2.35,2.35,0,0,0-.64,1,2.46,2.46,0,0,0,0,1,10.71,10.71,0,0,0,6.6,7.74,16.09,16.09,0,0,0,10.42.28A4.69,4.69,0,0,0,299,66.73c1.31-1.57.62-4.5-.38-6.09a12.54,12.54,0,0,0-6.43-4.94Z" fill="#789d49"/>
      <path d="M334.69,87.58a19.59,19.59,0,0,0,.79-1.88,21,21,0,0,0,1.06-5.93A201.58,201.58,0,0,1,378,64.21a202,202,0,0,0-41.43,13.73,49.09,49.09,0,0,0-.75-7.26c-.26-1.59-.56-3.23-.88-4.89q1.21-2.16,2.6-4.23a109.39,109.39,0,0,1,11-13.48,247.16,247.16,0,0,1,25.57-23.8,247.53,247.53,0,0,0-26.27,23.13,111.45,111.45,0,0,0-11.47,13.33c-.65.91-1.27,1.84-1.87,2.78-2.64-12.58-7.22-26.18-16.24-34.85a71.51,71.51,0,0,0-9.08-7.39,97.29,97.29,0,0,1,26.48-3.39l-1.54-5.24a42.1,42.1,0,0,0-7.85.16q-5.08.46-10.63,1.08t-11.08,1.54c-3.7.61-6.89,1.23-9.55,1.84L280.82,15a85.25,85.25,0,0,0-13.24-1.07,170.5,170.5,0,0,0-61.45,11.24,174.7,174.7,0,0,0-52.51,31.26A166.58,166.58,0,0,0,115.73,104c-10.59,19.74-16.63,42.42-18.12,64.65-.81,12.07-1.23,30.2,7.78,39.52,7,7.2,15.13,13.5,24.62,16.71a25.31,25.31,0,0,0,8.19,1.52c11.83-.1,17.73-12.65,21.68-22.13,4.83-11.62,7.79-24,10.17-36.35.92-4.81,1.72-10.09,2.49-16.63,6.2-52.1,31.29-75.18,56.45-94.35l2.62-2L230,46.85l-5.52,4.21c-25.26,19.24-52.76,44.38-59.3,99.34-2.53,21.27-11.75,67-43.23,50.87a27.78,27.78,0,0,1-14.06-17.76c-6-22.87,1.58-50.22,11.5-71.22A165.71,165.71,0,0,1,150.86,67a158.65,158.65,0,0,1,44.53-32,119.07,119.07,0,0,1,52.54-12.16,85.41,85.41,0,0,1,27.73,4.62q-25.58,15.7-41,34.34A180.94,180.94,0,0,0,210,100.13a231.48,231.48,0,0,0-14.49,39.73q-5.23,20-10.16,38.5a262.51,262.51,0,0,1-11.71,34.49,85,85,0,0,1-19.11,28q-12.33,12-32.2,18.79t-51.29,6.77a67.7,67.7,0,0,1-18.63-2.77,62.11,62.11,0,0,1-17.71-8.16,49.8,49.8,0,0,1-13.4-13.24c-.26-.38-.5-.76-.74-1.14a29.55,29.55,0,0,1-3.19-23.29C24.22,192.36,41.13,187,41.13,187l-1.47-8.82a59.84,59.84,0,0,0-21.25,18.94q-8.33,12-8.32,30.5,0,13.55,6.77,22.17A48.88,48.88,0,0,0,34,263.52a80.06,80.06,0,0,0,22.48,7.08,139.38,139.38,0,0,0,22.64,2,143.38,143.38,0,0,0,30.18-3.23,141.07,141.07,0,0,0,29-9.55,135.82,135.82,0,0,0,26-15.55,130.48,130.48,0,0,0,22-21.25,126.16,126.16,0,0,0,20-33.42A292.71,292.71,0,0,0,218,153.87q4.62-18,8.16-35.73A196.06,196.06,0,0,1,236,84.42,122.59,122.59,0,0,1,252.79,54.7Q263.26,41,281.44,30.82a49.94,49.94,0,0,1,18.47,18.49A48.87,48.87,0,0,1,307,74.56c0,1.7-.07,3.33-.17,4.93-2.13-.38-4.27-.65-6.41-.83a69.43,69.43,0,0,0-19.1,1.12,69.1,69.1,0,0,1,19-.16c2.15.29,4.31.67,6.42,1.17a59.29,59.29,0,0,1-1.1,7.69,107.09,107.09,0,0,0-14.21,1.19,107.74,107.74,0,0,1,13.92.06,38.6,38.6,0,0,1-4.2,10.7,80.91,80.91,0,0,1-12.78,16.64q-6.93,6.77-12.63,12t-5.7,11.7q0,6.47,6.16,10.63T289.75,161a65.13,65.13,0,0,1,13.55,13.55q6.17,8.16,6.16,22,0,29.88-16.94,46.81T245.4,260.28a92.52,92.52,0,0,1-12-.76,60.14,60.14,0,0,1-12-2.93,23,23,0,0,0,14-6.47,18.28,18.28,0,0,0,6.31-13.86,15.75,15.75,0,0,0-5.23-12.17,19.22,19.22,0,0,0-26.33.93,19.6,19.6,0,0,0-5.4,14A24.32,24.32,0,0,0,208,251.81a28.9,28.9,0,0,0,8.31,8.94,33.71,33.71,0,0,0,11.55,5.08,55.6,55.6,0,0,0,12.94,1.54,125.72,125.72,0,0,0,15.09-.93q7.69-.92,14.78-2.46,10.17-1.85,21.1-9.7a110.81,110.81,0,0,0,20-18.63,102.67,102.67,0,0,0,14.79-23.1q5.7-12.33,5.7-22.49,0-18.48-6.12-29.57a65.51,65.51,0,0,0-13.6-17.71,108.22,108.22,0,0,0-13.6-10.47c-5.29-3.33-8.29-7.7-3.59-12.85,3-3.3,5.8-7.46,9.16-10.27,3.75-3.13,8.86-5,13.19-7.15,6.17-3.08,12.53-7,16-12.71a158.75,158.75,0,0,1,34.23,1,159.07,159.07,0,0,0-33.28-2.7Z" fill="#789d49"/>
    </g>
  </g>
</svg>
